<svg
  fill="currentColor"
  viewBox="0 0 32 32"
  version="1.1"
  xmlns="http://www.w3.org/2000/svg"
>
  <path
    d="M30.258 9.777h0.075c0.087 0 0.125-0.012 0.125-0.087 0-0.062-0.038-0.087-0.125-0.087h-0.087v0.175zM30.233 10.152h-0.125v-0.65l0.25-0.012c0.010-0.001 0.023-0.001 0.035-0.001 0.069 0 0.134 0.014 0.193 0.040l-0.003-0.001c0.045 0.025 0.075 0.072 0.075 0.126 0 0.004-0 0.008-0 0.012l0-0.001c0 0.075-0.050 0.125-0.137 0.137 0.062 0.025 0.087 0.075 0.112 0.162l0.038 0.162h-0.15c-0.025-0.025-0.025-0.087-0.050-0.162-0.025-0.063-0.050-0.087-0.137-0.087h-0.062l-0.025 0.275zM29.859 9.827c-0 0.004-0 0.009-0 0.014 0 0.268 0.218 0.486 0.486 0.486 0.005 0 0.010-0 0.015-0l-0.001 0c0.265-0.014 0.475-0.232 0.475-0.5s-0.21-0.486-0.474-0.5l-0.001-0c-0.013-0.001-0.027-0.002-0.042-0.002-0.254 0-0.46 0.206-0.46 0.46 0 0.015 0.001 0.029 0.002 0.044l-0-0.002zM30.996 9.827c0 0.004 0 0.010 0 0.015 0 0.344-0.279 0.624-0.624 0.624-0.014 0-0.027-0-0.041-0.001l0.002 0c-0.008 0-0.016 0.001-0.025 0.001-0.348 0-0.63-0.279-0.637-0.625v-0.001c0.008-0.36 0.301-0.649 0.662-0.65h0c0.009-0.001 0.020-0.001 0.032-0.001 0.348 0 0.631 0.282 0.631 0.631 0 0.003-0 0.005-0 0.008v-0zM23.923 16.737h1.487v-1.45h-1.5v-1.487h-1.412v1.5h-1.5v1.437h1.5v1.475h1.437v-1.462zM6.265 16.737h4.424v-1.45h-4.411v1.45zM17.25 16c1.037-2.222 2.974-3.876 5.328-4.511l0.058-0.013c0.194-0.033 0.418-0.052 0.646-0.052 0.045 0 0.090 0.001 0.135 0.002l-0.007-0c0.041-0.001 0.090-0.002 0.139-0.002 2.552 0 4.628 2.034 4.697 4.569l0 0.006c-0.083 2.544-2.165 4.575-4.721 4.575-0.036 0-0.072-0-0.108-0.001l0.005 0c-0.25 0-0.525-0.025-0.775-0.050-2.41-0.652-4.345-2.305-5.365-4.473l-0.021-0.050zM9.102 20.499c-0.197 0.033-0.425 0.052-0.657 0.052-0.046 0-0.092-0.001-0.137-0.002l0.007 0c-0.030 0.001-0.066 0.001-0.102 0.001-2.554 0-4.633-2.032-4.709-4.568l-0-0.007c0.083-2.544 2.165-4.575 4.721-4.575 0.036 0 0.072 0 0.108 0.001l-0.005-0c0.25 0 0.525 0.025 0.787 0.050 2.417 0.639 4.356 2.296 5.365 4.473l0.021 0.050c-1.025 2.23-2.967 3.889-5.329 4.511l-0.057 0.013zM30.771 16c-0.077-3.93-3.28-7.087-7.222-7.087-0.044 0-0.089 0-0.133 0.001l0.007-0c-0.362 0-0.75 0.025-1.125 0.062-2.731 0.545-5.004 2.178-6.387 4.42l-0.024 0.042c-1.423-2.273-3.694-3.902-6.36-4.45l-0.063-0.011c-0.375-0.037-0.75-0.062-1.125-0.062-0.034-0.001-0.074-0.001-0.114-0.001-3.941 0-7.145 3.156-7.222 7.079l-0 0.007c0.077 3.93 3.281 7.086 7.222 7.086 0.040 0 0.080-0 0.12-0.001l-0.006 0c0.406-0.001 0.805-0.028 1.196-0.080l-0.047 0.005c2.734-0.539 5.011-2.169 6.399-4.407l0.024-0.041c1.42 2.275 3.693 3.905 6.36 4.45l0.063 0.011c0.387 0.037 0.75 0.062 1.137 0.062 0.023 0 0.049 0 0.076 0 3.941 0 7.145-3.156 7.221-7.079l0-0.007z"
  />
</svg>
