<svg viewBox="0 0 24 24" fill="none" xmlns="http://www.w3.org/2000/svg">
  <path
    fill-rule="evenodd"
    clip-rule="evenodd"
    d="M8.95483 0.5C7.40497 0.5 6.15179 1.02051 5.28314 1.88525C4.42365 2.74072 4 3.87646 4 5C4 6.12354 4.42365 7.25928 5.28314 8.11475C5.34259 8.17383 5.40381 8.23145 5.4668 8.2876C5.55005 8.36133 5.63641 8.43213 5.72577 8.5C5.64587 8.56055 5.56842 8.62354 5.49341 8.68896C5.42102 8.75244 5.35089 8.81787 5.28314 8.88525C4.42365 9.74072 4 10.8765 4 12C4 13.1235 4.42365 14.2593 5.28314 15.1147C5.41296 15.2441 5.55133 15.3652 5.698 15.4785C5.10254 15.9526 4.63531 16.5708 4.34253 17.2778C4.00195 18.1001 3.91284 19.0049 4.08649 19.8779C4.26013 20.751 4.68866 21.5527 5.31799 22.1821C5.94739 22.8115 6.74921 23.2397 7.62207 23.4136C8.495 23.5874 9.39978 23.498 10.2221 23.1572C11.0444 22.8169 11.7471 22.2402 12.2416 21.5C12.7361 20.7603 13 19.8901 13 19V15.7422C13.715 16.2207 14.575 16.5 15.5 16.5C17.9853 16.5 20 14.4854 20 12C20 10.5742 19.3369 9.30322 18.3021 8.47852C18.4487 8.36523 18.5871 8.24414 18.7169 8.11475C19.5764 7.25928 20 6.12354 20 5C20 3.87646 19.5764 2.74072 18.7169 1.88525C17.8482 1.02051 16.595 0.5 15.0452 0.5H8.95483ZM11 9.5H8.95483C7.8681 9.5 7.14392 9.85449 6.69427 10.3022C6.23547 10.7593 6 11.3735 6 12C6 12.6265 6.23547 13.2407 6.69427 13.6978C7.14392 14.1455 7.86816 14.5 8.95483 14.5H11V9.5ZM7.11957 16.9341C7.52814 16.6611 8.00854 16.5 8.5 16.5C8.5 16.5 8.88167 16.5 8.95483 16.5H11V19C11 19.4912 10.8391 19.9717 10.566 20.3804C10.293 20.7891 9.90491 21.1074 9.45087 21.2954C8.99683 21.4839 8.49725 21.5327 8.01526 21.437C7.53326 21.3413 7.09052 21.1045 6.74298 20.7568C6.39551 20.4097 6.15887 19.9668 6.06299 19.4849C5.9671 19.0029 6.0163 18.5029 6.20441 18.0493C6.39246 17.5952 6.71094 17.207 7.11957 16.9341ZM13 7.5H15.0452C16.1318 7.5 16.8561 7.14551 17.3057 6.69775C17.7645 6.24072 18 5.62646 18 5C18 4.37354 17.7645 3.75928 17.3057 3.30225C16.8561 2.85449 16.1319 2.5 15.0452 2.5H13V7.5ZM11 7.5H8.95483C7.86816 7.5 7.14392 7.14551 6.69427 6.69775C6.23547 6.24072 6 5.62646 6 5C6 4.37354 6.23547 3.75928 6.69427 3.30225C7.14392 2.85449 7.8681 2.5 8.95483 2.5H11V7.5ZM15.5 14.4849C14.1277 14.4849 13.0153 13.3721 13.0153 12C13.0153 10.6279 14.1277 9.51514 15.5 9.51514C16.8723 9.51514 17.9847 10.6279 17.9847 12C17.9847 13.3721 16.8723 14.4849 15.5 14.4849Z"
    fill="currentColor"
  />
</svg>
