<svg
  viewBox="0 0 300 653"
  version="1.1"
  xmlns="http://www.w3.org/2000/svg"
  fill="currentColor"
>
  <polygon
    points="108.027523 37.1559633 147.93578 37.1559633 146.907933 43.3486239 106.999676 43.3486239"
  />
  <polygon
    points="127.84055 315.825688 181.510275 315.825688 178.899083 326.834862 125.229358 326.834862"
  />
  <polygon
    points="116.933074 117.571262 170.602799 117.571262 168.246794 128.669725 114.577069 128.669725"
  />
  <polygon
    points="109.007381 154.816514 162.677105 154.816514 160.321101 165.825688 106.651376 165.825688"
  />
  <polygon
    points="101.005688 194.036697 154.675413 194.036697 152.06422 205.045872 98.3944954 205.045872"
  />
  <polygon
    points="121.787293 42.6605505 132.798165 42.6605505 99.7542519 205.045872 88.5329001 205.045872"
  />
  <polygon
    points="143.597724 194.021515 154.608596 194.021515 120.369031 364.943272 109.40367 364.943272"
  />
  <polygon
    points="187.956307 117.696455 253.211009 117.696455 250.346445 128.794918 185.091743 128.794918"
  />
  <polygon
    points="215.342526 117.66055 226.388321 117.66055 208.644943 205.045872 197.477064 205.045872"
  />
  <polygon
    points="30.3874998 277.329483 95.6422018 277.329483 92.7776378 288.427945 27.5229358 288.427945"
  />
  <polygon
    points="57.7737188 277.293578 68.8195137 277.293578 51.0761355 364.678899 39.9082569 364.678899"
  />
  <polygon
    points="42.6074574 153.538671 74.2588335 153.538671 71.9028292 164.547845 40.251453 164.547845"
  />
  <path
    d="M64.9839276,153.881641 C65.1517996,153.88481 66.2332025,153.88481 68.2281363,153.881641 C70.22307,153.878473 72.1981254,153.878473 74.1533025,153.881641 C74.136157,154.72016 74.0974221,155.206774 74.0368122,156.055392 C73.6320065,161.7232 72.2514175,167.592396 69.8099707,173.344085 C60.3813198,195.556594 38.7010938,207.605125 21.3858306,200.255232 C4.07056735,192.905339 -2.32279521,168.940276 7.10585564,146.727767 C16.5345065,124.515258 38.2147325,112.466727 55.5299957,119.81662 C59.4382585,121.475579 62.7233358,123.636931 65.4623994,126.777628 M65.4624043,126.775318 L61.6056069,137.417122 C61.5678532,137.346708 56.2007861,130.564697 52.1871871,128.861025 C39.7691701,123.589889 23.7441125,133.353584 16.3942194,150.668847 C9.04432619,167.984111 13.1528524,186.294004 25.5708694,191.56514 C37.9888865,196.836275 54.013944,187.072581 61.3638372,169.757318 C63.629505,164.419739 64.8063553,158.987647 64.9866256,153.872104"
  />
  <polygon
    transform="translate(174.148099, 636.123853) scale(-1, -1) translate(-174.148099, -636.123853) "
    points="180.33479 619.266055 193.479683 652.981651 154.816514 652.981651"
  />
  <polygon points="134.66948 0 147.814374 33.7155963 109.151204 33.7155963" />
  <polygon
    points="159.593624 448.623853 213.263349 448.623853 210.907345 459.722316 157.23762 459.722316"
  />
  <polygon
    points="151.667931 485.869105 205.337656 485.869105 202.981651 496.878279 149.311927 496.878279"
  />
  <polygon
    points="143.666239 525.089288 197.335963 525.089288 194.724771 536.098463 141.055046 536.098463"
  />
  <polygon
    points="183.942466 277.293578 194.953338 277.293578 142.431193 536.104914 131.422018 536.104914"
  />
  <polygon
    points="187.440665 525.089288 198.451537 525.089288 181.122007 610.285196 169.954128 610.285196"
  />
  <polygon
    points="66.3796971 447.283611 89.4495413 447.283611 88.4368166 458.382074 65.3669725 458.382074"
  />
  <polygon
    points="53.474753 523.659758 77.7522936 523.659758 76.5711186 534.668932 52.293578 534.668932"
  />
  <path
    d="M89.1936134,447.283611 C92.5404591,447.383286 96.2959104,448.795431 99.4521296,450.169499 C117.407356,457.98635 122.308804,481.912396 113.053108,504.635627 C105.584408,522.971684 90.1880928,534.38204 75.7119135,534.633028 L77.4121631,523.616636 C87.6672487,522.742216 98.4855556,514.431755 104.099691,500.936235 C111.356946,483.490908 107.300204,465.04348 95.0387041,459.732751 C92.7536694,458.743051 89.9783347,458.351376 87.4819256,458.373366 Z"
  />
  <polygon
    points="61.2140858 447.247706 72.2598807 447.247706 54.5165025 534.633028 43.3486239 534.633028"
  />
  <polygon
    points="248.03744 503.669725 286.926606 503.669725 285.219441 514.678899 246.330275 514.678899"
  />
  <polygon
    points="268.324178 448.623853 279.369972 448.623853 238.232099 533.256881 227.06422 533.256881"
  />
  <polygon
    transform="translate(283.492326, 490.940367) scale(1, -1) translate(-283.492326, -490.940367) "
    points="288.278306 448.623853 299.324101 448.623853 278.828429 533.256881 267.66055 533.256881"
  />
  <polygon
    points="237.345918 277.293578 291.015643 277.293578 288.659638 288.392041 234.989914 288.392041"
  />
  <polygon
    points="229.420225 314.53883 283.089949 314.53883 280.733945 325.548004 227.06422 325.548004"
  />
  <polygon
    points="221.418532 353.669725 275.088257 353.669725 272.477064 364.678899 218.807339 364.678899"
  />
  <polygon
    points="227.039774 277.293578 238.085569 277.293578 220.342191 364.642994 209.174312 364.642994"
  />
  <polygon
    points="17.865462 447.247706 28.9112568 447.247706 11.1678786 534.633028 -1.24344979e-13 534.633028"
  />
  <polygon
    points="155.844361 609.633028 195.752618 609.633028 194.724771 615.825688 154.816514 615.825688"
  />
</svg>
