<svg
  xmlns="http://www.w3.org/2000/svg"
  width="21"
  height="20"
  viewBox="0 0 21 20"
  fill="currentColor"
>
  <path
    d="M18.6422 0.000139831H1.59997C1.4084 -0.00250479 1.21818 0.0323873 1.04017 0.102824C0.862171 0.17326 0.69987 0.27786 0.56254 0.410652C0.42521 0.543443 0.315542 0.701824 0.239798 0.876749C0.164054 1.05167 0.123718 1.23972 0.121094 1.43014V18.5701C0.123718 18.7606 0.164054 18.9486 0.239798 19.1235C0.315542 19.2985 0.42521 19.4568 0.56254 19.5896C0.69987 19.7224 0.862171 19.827 1.04017 19.8975C1.21818 19.9679 1.4084 20.0028 1.59997 20.0001H18.6422C18.8338 20.0028 19.024 19.9679 19.202 19.8975C19.38 19.827 19.5423 19.7224 19.6796 19.5896C19.817 19.4568 19.9266 19.2985 20.0024 19.1235C20.0781 18.9486 20.1185 18.7606 20.1211 18.5701V1.43014C20.1185 1.23972 20.0781 1.05167 20.0024 0.876749C19.9266 0.701824 19.817 0.543443 19.6796 0.410652C19.5423 0.27786 19.38 0.17326 19.202 0.102824C19.024 0.0323873 18.8338 -0.00250479 18.6422 0.000139831ZM6.18749 16.7401H3.16938V7.74014H6.18749V16.7401ZM4.67844 6.48014C4.2622 6.48014 3.86302 6.31578 3.56869 6.02323C3.27437 5.73067 3.10902 5.33388 3.10902 4.92014C3.10902 4.5064 3.27437 4.10961 3.56869 3.81705C3.86302 3.5245 4.2622 3.36014 4.67844 3.36014C4.89946 3.33522 5.12328 3.35699 5.33525 3.42402C5.54722 3.49105 5.74256 3.60183 5.90847 3.7491C6.07439 3.89637 6.20714 4.07682 6.29803 4.27862C6.38892 4.48043 6.4359 4.69904 6.4359 4.92014C6.4359 5.14124 6.38892 5.35985 6.29803 5.56166C6.20714 5.76346 6.07439 5.94391 5.90847 6.09118C5.74256 6.23845 5.54722 6.34923 5.33525 6.41626C5.12328 6.48329 4.89946 6.50505 4.67844 6.48014ZM17.0728 16.7401H14.0547V11.9101C14.0547 10.7001 13.6221 9.91014 12.5255 9.91014C12.1861 9.91261 11.8557 10.0184 11.5787 10.2133C11.3017 10.4082 11.0914 10.6828 10.9762 11.0001C10.8975 11.2352 10.8634 11.4827 10.8756 11.7301V16.7301H7.85751C7.85751 16.7301 7.85751 8.55014 7.85751 7.73014H10.8756V9.00014C11.1498 8.52725 11.5486 8.13766 12.029 7.87334C12.5094 7.60902 13.0533 7.47999 13.602 7.50014C15.614 7.50014 17.0728 8.79014 17.0728 11.5601V16.7401Z"
  />
</svg>
