<svg
  id="svg"
  xmlns="http://www.w3.org/2000/svg"
  xmlns:xlink="http://www.w3.org/1999/xlink"
  width="400"
  height="460"
  viewBox="0, 0, 400,460"
>
  <path
    id="path0"
    d="M146.400 56.400 L 146.400 60.000 139.600 60.000 L 132.800 60.000 132.800 63.200 L 132.800 66.400 126.400 66.400 L 120.000 66.400 120.000 69.600 L 120.000 72.800 116.400 72.800 L 112.800 72.800 112.800 76.400 L 112.800 80.000 99.600 80.000 L 86.400 80.000 86.400 86.400 L 86.400 92.800 89.600 92.800 L 92.800 92.800 92.800 112.800 L 92.800 132.800 96.400 132.800 L 100.000 132.800 100.000 142.800 L 100.000 152.800 103.200 152.800 L 106.400 152.800 106.400 166.400 L 106.400 180.000 99.600 180.000 L 92.800 180.000 92.800 183.200 L 92.800 186.400 89.600 186.400 L 86.400 186.400 86.400 189.600 L 86.400 192.800 83.200 192.800 L 80.000 192.800 80.000 196.400 L 80.000 200.000 76.400 200.000 L 72.800 200.000 72.800 216.400 L 72.800 232.800 76.400 232.800 L 80.000 232.800 80.000 239.600 L 80.000 246.400 83.200 246.400 L 86.400 246.400 86.400 249.600 L 86.400 252.800 89.600 252.800 L 92.800 252.800 92.800 256.400 L 92.800 260.000 96.400 260.000 L 100.000 260.000 100.000 263.200 L 100.000 266.400 103.200 266.400 L 106.400 266.400 106.400 269.600 L 106.400 272.800 109.600 272.800 L 112.800 272.800 112.800 276.400 L 112.800 280.000 122.800 280.000 L 132.800 280.000 132.800 286.400 L 132.800 292.800 129.600 292.800 L 126.400 292.800 126.400 296.400 L 126.400 300.000 123.200 300.000 L 120.000 300.000 120.000 303.200 L 120.000 306.400 116.400 306.400 L 112.800 306.400 112.800 309.600 L 112.800 312.800 109.600 312.800 L 106.400 312.800 106.400 316.400 L 106.400 320.000 103.200 320.000 L 100.000 320.000 100.000 323.200 L 100.000 326.400 96.400 326.400 L 92.800 326.400 92.800 336.400 L 92.800 346.400 89.600 346.400 L 86.400 346.400 86.400 363.200 L 86.400 380.000 83.200 380.000 L 80.000 380.000 80.000 390.000 L 80.000 400.000 76.400 400.000 L 72.800 400.000 72.800 403.200 L 72.800 406.400 69.600 406.400 L 66.400 406.400 66.400 409.600 L 66.400 412.800 63.200 412.800 L 60.000 412.800 60.000 422.800 L 60.000 432.800 100.000 432.800 L 140.000 432.800 140.000 429.600 L 140.000 426.400 143.200 426.400 L 146.400 426.400 146.400 419.600 L 146.400 412.800 149.600 412.800 L 152.800 412.800 152.800 402.800 L 152.800 392.800 149.600 392.800 L 146.400 392.800 146.400 382.800 L 146.400 372.800 143.200 372.800 L 140.000 372.800 140.000 362.800 L 140.000 352.800 143.200 352.800 L 146.400 352.800 146.400 349.600 L 146.400 346.400 149.600 346.400 L 152.800 346.400 152.800 343.200 L 152.800 340.000 166.400 340.000 L 180.000 340.000 180.000 346.400 L 180.000 352.800 183.200 352.800 L 186.400 352.800 186.400 362.800 L 186.400 372.800 189.600 372.800 L 192.800 372.800 192.800 379.600 L 192.800 386.400 196.400 386.400 L 200.000 386.400 200.000 393.200 L 200.000 400.000 203.200 400.000 L 206.400 400.000 206.400 406.400 L 206.400 412.800 209.600 412.800 L 212.800 412.800 212.800 416.400 L 212.800 420.000 216.400 420.000 L 220.000 420.000 220.000 430.000 L 220.000 440.000 223.200 440.000 L 226.400 440.000 226.400 443.600 L 226.400 447.200 256.400 447.200 L 286.400 447.200 286.400 443.600 L 286.400 440.000 289.600 440.000 L 292.800 440.000 292.800 436.400 L 292.800 432.800 296.400 432.800 L 300.000 432.800 300.000 426.400 L 300.000 420.000 296.400 420.000 L 292.800 420.000 292.800 413.200 L 292.800 406.400 289.600 406.400 L 286.400 406.400 286.400 403.200 L 286.400 400.000 283.200 400.000 L 280.000 400.000 280.000 396.400 L 280.000 392.800 276.400 392.800 L 272.800 392.800 272.800 389.600 L 272.800 386.400 266.400 386.400 L 260.000 386.400 260.000 383.200 L 260.000 380.000 256.400 380.000 L 252.800 380.000 252.800 373.200 L 252.800 366.400 249.600 366.400 L 246.400 366.400 246.400 359.600 L 246.400 352.800 243.200 352.800 L 240.000 352.800 240.000 339.600 L 240.000 326.400 236.400 326.400 L 232.800 326.400 232.800 319.600 L 232.800 312.800 236.400 312.800 L 240.000 312.800 240.000 306.400 L 240.000 300.000 236.400 300.000 L 232.800 300.000 232.800 296.400 L 232.800 292.800 242.800 292.800 L 252.800 292.800 252.800 289.600 L 252.800 286.400 259.600 286.400 L 266.400 286.400 266.400 283.200 L 266.400 280.000 269.600 280.000 L 272.800 280.000 272.800 263.200 L 272.800 246.400 269.600 246.400 L 266.400 246.400 266.400 243.200 L 266.400 240.000 263.200 240.000 L 260.000 240.000 260.000 236.400 L 260.000 232.800 256.400 232.800 L 252.800 232.800 252.800 229.600 L 252.800 226.400 249.600 226.400 L 246.400 226.400 246.400 223.200 L 246.400 220.000 243.200 220.000 L 240.000 220.000 240.000 216.400 L 240.000 212.800 236.400 212.800 L 232.800 212.800 232.800 209.600 L 232.800 206.400 229.600 206.400 L 226.400 206.400 226.400 203.200 L 226.400 200.000 229.600 200.000 L 232.800 200.000 232.800 196.400 L 232.800 192.800 236.400 192.800 L 240.000 192.800 240.000 189.600 L 240.000 186.400 243.200 186.400 L 246.400 186.400 246.400 166.400 L 246.400 146.400 253.200 146.400 L 260.000 146.400 260.000 149.600 L 260.000 152.800 266.400 152.800 L 272.800 152.800 272.800 142.800 L 272.800 132.800 276.400 132.800 L 280.000 132.800 280.000 119.600 L 280.000 106.400 276.400 106.400 L 272.800 106.400 272.800 99.600 L 272.800 92.800 269.600 92.800 L 266.400 92.800 266.400 89.600 L 266.400 86.400 263.200 86.400 L 260.000 86.400 260.000 83.200 L 260.000 80.000 256.400 80.000 L 252.800 80.000 252.800 76.400 L 252.800 72.800 249.600 72.800 L 246.400 72.800 246.400 69.600 L 246.400 66.400 239.600 66.400 L 232.800 66.400 232.800 63.200 L 232.800 60.000 226.400 60.000 L 220.000 60.000 220.000 56.400 L 220.000 52.800 183.200 52.800 L 146.400 52.800 146.400 56.400 M200.000 63.200 L 200.000 66.400 213.200 66.400 L 226.400 66.400 226.400 69.600 L 226.400 72.800 236.400 72.800 L 246.400 72.800 246.400 76.400 L 246.400 80.000 249.600 80.000 L 252.800 80.000 252.800 83.200 L 252.800 86.400 256.400 86.400 L 260.000 86.400 260.000 89.600 L 260.000 92.800 263.200 92.800 L 266.400 92.800 266.400 99.600 L 266.400 106.400 269.600 106.400 L 272.800 106.400 272.800 116.400 L 272.800 126.400 269.600 126.400 L 266.400 126.400 266.400 133.200 L 266.400 140.000 263.200 140.000 L 260.000 140.000 260.000 136.400 L 260.000 132.800 256.400 132.800 L 252.800 132.800 252.800 129.600 L 252.800 126.400 249.600 126.400 L 246.400 126.400 246.400 123.200 L 246.400 120.000 239.600 120.000 L 232.800 120.000 232.800 123.200 L 232.800 126.400 229.600 126.400 L 226.400 126.400 226.400 123.200 L 226.400 120.000 223.200 120.000 L 220.000 120.000 220.000 113.200 L 220.000 106.400 216.400 106.400 L 212.800 106.400 212.800 113.200 L 212.800 120.000 209.600 120.000 L 206.400 120.000 206.400 123.200 L 206.400 126.400 203.200 126.400 L 200.000 126.400 200.000 123.200 L 200.000 120.000 196.400 120.000 L 192.800 120.000 192.800 116.400 L 192.800 112.800 189.600 112.800 L 186.400 112.800 186.400 109.600 L 186.400 106.400 183.200 106.400 L 180.000 106.400 180.000 109.600 L 180.000 112.800 176.400 112.800 L 172.800 112.800 172.800 116.400 L 172.800 120.000 166.400 120.000 L 160.000 120.000 160.000 116.400 L 160.000 112.800 156.400 112.800 L 152.800 112.800 152.800 109.600 L 152.800 106.400 149.600 106.400 L 146.400 106.400 146.400 116.400 L 146.400 126.400 143.200 126.400 L 140.000 126.400 140.000 129.600 L 140.000 132.800 136.400 132.800 L 132.800 132.800 132.800 129.600 L 132.800 126.400 129.600 126.400 L 126.400 126.400 126.400 119.600 L 126.400 112.800 123.200 112.800 L 120.000 112.800 120.000 116.400 L 120.000 120.000 116.400 120.000 L 112.800 120.000 112.800 116.400 L 112.800 112.800 109.600 112.800 L 106.400 112.800 106.400 102.800 L 106.400 92.800 99.600 92.800 L 92.800 92.800 92.800 89.600 L 92.800 86.400 102.800 86.400 L 112.800 86.400 112.800 83.200 L 112.800 80.000 116.400 80.000 L 120.000 80.000 120.000 76.400 L 120.000 72.800 126.400 72.800 L 132.800 72.800 132.800 69.600 L 132.800 66.400 142.800 66.400 L 152.800 66.400 152.800 63.200 L 152.800 60.000 176.400 60.000 L 200.000 60.000 200.000 63.200 M252.800 116.400 L 252.800 120.000 256.400 120.000 L 260.000 120.000 260.000 123.200 L 260.000 126.400 263.200 126.400 L 266.400 126.400 266.400 123.200 L 266.400 120.000 263.200 120.000 L 260.000 120.000 260.000 116.400 L 260.000 112.800 256.400 112.800 L 252.800 112.800 252.800 116.400 M172.800 129.600 L 172.800 132.800 176.400 132.800 L 180.000 132.800 180.000 146.400 L 180.000 160.000 186.400 160.000 L 192.800 160.000 192.800 163.200 L 192.800 166.400 196.400 166.400 L 200.000 166.400 200.000 159.600 L 200.000 152.800 203.200 152.800 L 206.400 152.800 206.400 149.600 L 206.400 146.400 209.600 146.400 L 212.800 146.400 212.800 156.400 L 212.800 166.400 216.400 166.400 L 220.000 166.400 220.000 156.400 L 220.000 146.400 223.200 146.400 L 226.400 146.400 226.400 143.200 L 226.400 140.000 229.600 140.000 L 232.800 140.000 232.800 150.000 L 232.800 160.000 236.400 160.000 L 240.000 160.000 240.000 163.200 L 240.000 166.400 230.000 166.400 L 220.000 166.400 220.000 169.600 L 220.000 172.800 230.000 172.800 L 240.000 172.800 240.000 179.600 L 240.000 186.400 236.400 186.400 L 232.800 186.400 232.800 189.600 L 232.800 192.800 229.600 192.800 L 226.400 192.800 226.400 196.400 L 226.400 200.000 196.400 200.000 L 166.400 200.000 166.400 196.400 L 166.400 192.800 159.600 192.800 L 152.800 192.800 152.800 196.400 L 152.800 200.000 156.400 200.000 L 160.000 200.000 160.000 203.200 L 160.000 206.400 146.400 206.400 L 132.800 206.400 132.800 203.200 L 132.800 200.000 129.600 200.000 L 126.400 200.000 126.400 206.400 L 126.400 212.800 123.200 212.800 L 120.000 212.800 120.000 216.400 L 120.000 220.000 116.400 220.000 L 112.800 220.000 112.800 213.200 L 112.800 206.400 109.600 206.400 L 106.400 206.400 106.400 216.400 L 106.400 226.400 103.200 226.400 L 100.000 226.400 100.000 229.600 L 100.000 232.800 93.200 232.800 L 86.400 232.800 86.400 229.600 L 86.400 226.400 83.200 226.400 L 80.000 226.400 80.000 213.200 L 80.000 200.000 83.200 200.000 L 86.400 200.000 86.400 196.400 L 86.400 192.800 89.600 192.800 L 92.800 192.800 92.800 189.600 L 92.800 186.400 102.800 186.400 L 112.800 186.400 112.800 189.600 L 112.800 192.800 116.400 192.800 L 120.000 192.800 120.000 196.400 L 120.000 200.000 123.200 200.000 L 126.400 200.000 126.400 196.400 L 126.400 192.800 139.600 192.800 L 152.800 192.800 152.800 189.600 L 152.800 186.400 149.600 186.400 L 146.400 186.400 146.400 183.200 L 146.400 180.000 143.200 180.000 L 140.000 180.000 140.000 176.400 L 140.000 172.800 130.000 172.800 L 120.000 172.800 120.000 169.600 L 120.000 166.400 116.400 166.400 L 112.800 166.400 112.800 153.200 L 112.800 140.000 122.800 140.000 L 132.800 140.000 132.800 143.200 L 132.800 146.400 136.400 146.400 L 140.000 146.400 140.000 156.400 L 140.000 166.400 143.200 166.400 L 146.400 166.400 146.400 159.600 L 146.400 152.800 149.600 152.800 L 152.800 152.800 152.800 156.400 L 152.800 160.000 156.400 160.000 L 160.000 160.000 160.000 146.400 L 160.000 132.800 163.200 132.800 L 166.400 132.800 166.400 129.600 L 166.400 126.400 169.600 126.400 L 172.800 126.400 172.800 129.600 M120.000 149.600 L 120.000 152.800 123.200 152.800 L 126.400 152.800 126.400 159.600 L 126.400 166.400 129.600 166.400 L 132.800 166.400 132.800 156.400 L 132.800 146.400 126.400 146.400 L 120.000 146.400 120.000 149.600 M160.000 163.200 L 160.000 166.400 163.200 166.400 L 166.400 166.400 166.400 169.600 L 166.400 172.800 179.600 172.800 L 192.800 172.800 192.800 169.600 L 192.800 166.400 179.600 166.400 L 166.400 166.400 166.400 163.200 L 166.400 160.000 163.200 160.000 L 160.000 160.000 160.000 163.200 M206.400 169.600 L 206.400 172.800 209.600 172.800 L 212.800 172.800 212.800 169.600 L 212.800 166.400 209.600 166.400 L 206.400 166.400 206.400 169.600 M180.000 183.200 L 180.000 186.400 183.200 186.400 L 186.400 186.400 186.400 189.600 L 186.400 192.800 199.600 192.800 L 212.800 192.800 212.800 189.600 L 212.800 186.400 199.600 186.400 L 186.400 186.400 186.400 183.200 L 186.400 180.000 183.200 180.000 L 180.000 180.000 180.000 183.200 M112.800 203.200 L 112.800 206.400 116.400 206.400 L 120.000 206.400 120.000 203.200 L 120.000 200.000 116.400 200.000 L 112.800 200.000 112.800 203.200 M192.800 209.600 L 192.800 212.800 186.400 212.800 L 180.000 212.800 180.000 209.600 L 180.000 206.400 186.400 206.400 L 192.800 206.400 192.800 209.600 M172.800 223.200 L 172.800 226.400 189.600 226.400 L 206.400 226.400 206.400 229.600 L 206.400 232.800 199.600 232.800 L 192.800 232.800 192.800 236.400 L 192.800 240.000 209.600 240.000 L 226.400 240.000 226.400 246.400 L 226.400 252.800 229.600 252.800 L 232.800 252.800 232.800 269.600 L 232.800 286.400 216.400 286.400 L 200.000 286.400 200.000 283.200 L 200.000 280.000 196.400 280.000 L 192.800 280.000 192.800 260.000 L 192.800 240.000 189.600 240.000 L 186.400 240.000 186.400 243.200 L 186.400 246.400 183.200 246.400 L 180.000 246.400 180.000 256.400 L 180.000 266.400 183.200 266.400 L 186.400 266.400 186.400 269.600 L 186.400 272.800 183.200 272.800 L 180.000 272.800 180.000 276.400 L 180.000 280.000 170.000 280.000 L 160.000 280.000 160.000 283.200 L 160.000 286.400 176.400 286.400 L 192.800 286.400 192.800 289.600 L 192.800 292.800 176.400 292.800 L 160.000 292.800 160.000 289.600 L 160.000 286.400 153.200 286.400 L 146.400 286.400 146.400 283.200 L 146.400 280.000 153.200 280.000 L 160.000 280.000 160.000 276.400 L 160.000 272.800 153.200 272.800 L 146.400 272.800 146.400 269.600 L 146.400 266.400 149.600 266.400 L 152.800 266.400 152.800 246.400 L 152.800 226.400 156.400 226.400 L 160.000 226.400 160.000 223.200 L 160.000 220.000 166.400 220.000 L 172.800 220.000 172.800 223.200 M240.000 223.200 L 240.000 226.400 243.200 226.400 L 246.400 226.400 246.400 229.600 L 246.400 232.800 236.400 232.800 L 226.400 232.800 226.400 229.600 L 226.400 226.400 223.200 226.400 L 220.000 226.400 220.000 223.200 L 220.000 220.000 230.000 220.000 L 240.000 220.000 240.000 223.200 M120.000 236.400 L 120.000 240.000 123.200 240.000 L 126.400 240.000 126.400 243.200 L 126.400 246.400 129.600 246.400 L 132.800 246.400 132.800 256.400 L 132.800 266.400 129.600 266.400 L 126.400 266.400 126.400 269.600 L 126.400 272.800 119.600 272.800 L 112.800 272.800 112.800 269.600 L 112.800 266.400 109.600 266.400 L 106.400 266.400 106.400 263.200 L 106.400 260.000 103.200 260.000 L 100.000 260.000 100.000 256.400 L 100.000 252.800 106.400 252.800 L 112.800 252.800 112.800 249.600 L 112.800 246.400 99.600 246.400 L 86.400 246.400 86.400 243.200 L 86.400 240.000 99.600 240.000 L 112.800 240.000 112.800 236.400 L 112.800 232.800 116.400 232.800 L 120.000 232.800 120.000 236.400 M112.800 243.200 L 112.800 246.400 116.400 246.400 L 120.000 246.400 120.000 243.200 L 120.000 240.000 116.400 240.000 L 112.800 240.000 112.800 243.200 M260.000 249.600 L 260.000 252.800 263.200 252.800 L 266.400 252.800 266.400 266.400 L 266.400 280.000 259.600 280.000 L 252.800 280.000 252.800 266.400 L 252.800 252.800 249.600 252.800 L 246.400 252.800 246.400 269.600 L 246.400 286.400 243.200 286.400 L 240.000 286.400 240.000 269.600 L 240.000 252.800 243.200 252.800 L 246.400 252.800 246.400 249.600 L 246.400 246.400 253.200 246.400 L 260.000 246.400 260.000 249.600 M140.000 276.400 L 140.000 280.000 136.400 280.000 L 132.800 280.000 132.800 276.400 L 132.800 272.800 136.400 272.800 L 140.000 272.800 140.000 276.400 M152.800 303.200 L 152.800 306.400 156.400 306.400 L 160.000 306.400 160.000 309.600 L 160.000 312.800 156.400 312.800 L 152.800 312.800 152.800 319.600 L 152.800 326.400 142.800 326.400 L 132.800 326.400 132.800 329.600 L 132.800 332.800 122.800 332.800 L 112.800 332.800 112.800 336.400 L 112.800 340.000 109.600 340.000 L 106.400 340.000 106.400 343.200 L 106.400 346.400 109.600 346.400 L 112.800 346.400 112.800 366.400 L 112.800 386.400 102.800 386.400 L 92.800 386.400 92.800 389.600 L 92.800 392.800 96.400 392.800 L 100.000 392.800 100.000 396.400 L 100.000 400.000 120.000 400.000 L 140.000 400.000 140.000 403.200 L 140.000 406.400 120.000 406.400 L 100.000 406.400 100.000 409.600 L 100.000 412.800 106.400 412.800 L 112.800 412.800 112.800 416.400 L 112.800 420.000 126.400 420.000 L 140.000 420.000 140.000 423.200 L 140.000 426.400 103.200 426.400 L 66.400 426.400 66.400 419.600 L 66.400 412.800 69.600 412.800 L 72.800 412.800 72.800 409.600 L 72.800 406.400 86.400 406.400 L 100.000 406.400 100.000 403.200 L 100.000 400.000 93.200 400.000 L 86.400 400.000 86.400 393.200 L 86.400 386.400 89.600 386.400 L 92.800 386.400 92.800 366.400 L 92.800 346.400 96.400 346.400 L 100.000 346.400 100.000 336.400 L 100.000 326.400 103.200 326.400 L 106.400 326.400 106.400 323.200 L 106.400 320.000 109.600 320.000 L 112.800 320.000 112.800 316.400 L 112.800 312.800 122.800 312.800 L 132.800 312.800 132.800 309.600 L 132.800 306.400 136.400 306.400 L 140.000 306.400 140.000 303.200 L 140.000 300.000 146.400 300.000 L 152.800 300.000 152.800 303.200 M172.800 313.200 L 172.800 320.000 169.600 320.000 L 166.400 320.000 166.400 313.200 L 166.400 306.400 169.600 306.400 L 172.800 306.400 172.800 313.200 M200.000 309.600 L 200.000 312.800 203.200 312.800 L 206.400 312.800 206.400 316.400 L 206.400 320.000 213.200 320.000 L 220.000 320.000 220.000 330.000 L 220.000 340.000 223.200 340.000 L 226.400 340.000 226.400 356.400 L 226.400 372.800 223.200 372.800 L 220.000 372.800 220.000 376.400 L 220.000 380.000 213.200 380.000 L 206.400 380.000 206.400 376.400 L 206.400 372.800 203.200 372.800 L 200.000 372.800 200.000 369.600 L 200.000 366.400 196.400 366.400 L 192.800 366.400 192.800 356.400 L 192.800 346.400 189.600 346.400 L 186.400 346.400 186.400 339.600 L 186.400 332.800 183.200 332.800 L 180.000 332.800 180.000 329.600 L 180.000 326.400 183.200 326.400 L 186.400 326.400 186.400 323.200 L 186.400 320.000 183.200 320.000 L 180.000 320.000 180.000 313.200 L 180.000 306.400 190.000 306.400 L 200.000 306.400 200.000 309.600 M126.400 372.800 L 126.400 392.800 123.200 392.800 L 120.000 392.800 120.000 372.800 L 120.000 352.800 123.200 352.800 L 126.400 352.800 126.400 372.800 M246.400 373.200 L 246.400 380.000 249.600 380.000 L 252.800 380.000 252.800 383.200 L 252.800 386.400 256.400 386.400 L 260.000 386.400 260.000 389.600 L 260.000 392.800 263.200 392.800 L 266.400 392.800 266.400 396.400 L 266.400 400.000 263.200 400.000 L 260.000 400.000 260.000 396.400 L 260.000 392.800 253.200 392.800 L 246.400 392.800 246.400 389.600 L 246.400 386.400 243.200 386.400 L 240.000 386.400 240.000 383.200 L 240.000 380.000 236.400 380.000 L 232.800 380.000 232.800 373.200 L 232.800 366.400 239.600 366.400 L 246.400 366.400 246.400 373.200 M286.400 423.200 L 286.400 426.400 289.600 426.400 L 292.800 426.400 292.800 429.600 L 292.800 432.800 289.600 432.800 L 286.400 432.800 286.400 436.400 L 286.400 440.000 256.400 440.000 L 226.400 440.000 226.400 436.400 L 226.400 432.800 229.600 432.800 L 232.800 432.800 232.800 429.600 L 232.800 426.400 246.400 426.400 L 260.000 426.400 260.000 423.200 L 260.000 420.000 273.200 420.000 L 286.400 420.000 286.400 423.200 "
    stroke="none"
    fill="currentColor"
    fill-rule="evenodd"
  />
</svg>
