<svg
  xmlns="http://www.w3.org/2000/svg"
  width="86"
  height="55"
  viewBox="0 0 86 55"
  fill="currentColor"
>
  <path
    fill-rule="evenodd"
    clip-rule="evenodd"
    d="M26.4005 13.9344C25.388 13.9344 24.5672 14.7552 24.5672 15.7677C24.5672 16.7802 25.388 17.601 26.4005 17.601H46.9339V19.801H26.4005C24.173 19.801 22.3672 17.9953 22.3672 15.7677C22.3672 13.5402 24.173 11.7344 26.4005 11.7344H46.9339V13.9344H26.4005Z"
    fill="currentColor"
  />
  <path
    fill-rule="evenodd"
    clip-rule="evenodd"
    d="M20.5331 37.0359C21.5456 37.0359 22.3664 37.8567 22.3664 38.8693C22.3664 39.8818 21.5456 40.7026 20.5331 40.7026H-0.000261307V42.9026H20.5331C22.7606 42.9026 24.5664 41.0968 24.5664 38.8693C24.5664 36.6417 22.7606 34.8359 20.5331 34.8359H-0.000261307V37.0359H20.5331Z"
    fill="currentColor"
  />
  <path
    fill-rule="evenodd"
    clip-rule="evenodd"
    d="M59.4 2.2H23.4667C15.974 2.2 9.9 8.274 9.9 15.7667C9.9 23.2593 15.2407 29.3333 22.7333 29.3333C28.201 29.3333 31.9 33.7657 31.9 39.2333C31.9 44.701 27.4676 49.1333 22 49.1333H0V46.9333H22C26.2526 46.9333 29.7 43.4859 29.7 39.2333C29.7 34.9807 26.9859 31.5333 22.7333 31.5333H0V29.3333H14.8891C10.4792 26.5859 7.7 21.5384 7.7 15.7667C7.7 7.05898 14.759 0 23.4667 0H59.4V2.2ZM46.9333 25.6667H32.0442C36.4541 28.4141 39.2333 33.4616 39.2333 39.2333C39.2333 47.941 32.1744 55 23.4667 55H0V52.8H23.4667C30.9593 52.8 37.0333 46.726 37.0333 39.2333C37.0333 31.7407 31.6927 25.6667 24.2 25.6667L22.7333 25.5561C18.0813 24.84 15.0333 20.7298 15.0333 15.7667C15.0333 10.299 19.4657 5.86667 24.9333 5.86667H46.9333V8.06667H24.9333C20.6807 8.06667 17.2333 11.5141 17.2333 15.7667C17.2333 20.0193 19.9474 23.4667 24.2 23.4667H46.9333V25.6667Z"
    fill="currentColor"
  />
  <path
    fill-rule="evenodd"
    clip-rule="evenodd"
    d="M-0.000782291 52.8036L-0.000781298 30.0703L2.19922 30.0703L2.19922 52.8036L-0.000782291 52.8036Z"
    fill="currentColor"
  />
  <path
    fill-rule="evenodd"
    clip-rule="evenodd"
    d="M82.8664 55.0036L82.8664 41.0703L85.0664 41.0703L85.0664 55.0036L82.8664 55.0036Z"
    fill="currentColor"
  />
  <path
    fill-rule="evenodd"
    clip-rule="evenodd"
    d="M45.834 0H48.034V52.8H84.334V55H45.834V0Z"
    fill="currentColor"
  />
  <path
    fill-rule="evenodd"
    clip-rule="evenodd"
    d="M51.6992 0H53.8992V46.9333H84.3326V49.1333H51.6992V0Z"
    fill="currentColor"
  />
  <path
    fill-rule="evenodd"
    clip-rule="evenodd"
    d="M57.5664 0H59.7664V40.7143H85.0664V42.9143H57.5664V0Z"
    fill="currentColor"
  />
</svg>
